<?xml version="1.0" encoding="utf-8"?>
<!-- Svg Vector Icons : http://www.onlinewebfonts.com/icon -->
<!DOCTYPE svg PUBLIC "-//W3C//DTD SVG 1.1//EN" "http://www.w3.org/Graphics/SVG/1.1/DTD/svg11.dtd">
<svg version="1.1" xmlns="http://www.w3.org/2000/svg" xmlns:xlink="http://www.w3.org/1999/xlink" x="0px" y="0px" viewBox="0 0 1000 1000" enable-background="new 0 0 1000 1000" xml:space="preserve">
<metadata> Svg Vector Icons : http://www.onlinewebfonts.com/icon </metadata>
<g><g><path style="fill:#ffffff;" d="M55.9,990h428.8c8.5,0,15.3-6.9,15.3-15.3s-6.9-15.3-15.3-15.3H55.9c-8.5,0-15.3-6.9-15.3-15.3V55.9c0-8.5,6.9-15.3,15.3-15.3h643.1c8.5,0,15.3,6.9,15.3,15.3v153.1c0,8.5,6.9,15.3,15.3,15.3s15.3-6.9,15.3-15.3V55.9c0-25.3-20.6-45.9-45.9-45.9H55.9C30.6,10,10,30.6,10,55.9v888.1C10,969.4,30.6,990,55.9,990z M561.3,331.6v612.5c0,25.3,20.6,45.9,45.9,45.9h336.9c25.3,0,45.9-20.6,45.9-45.9V331.6c0-25.3-20.6-45.9-45.9-45.9H607.2C581.9,285.6,561.3,306.2,561.3,331.6z M959.4,331.6v612.5c0,8.5-6.9,15.3-15.3,15.3H607.2c-8.5,0-15.3-6.9-15.3-15.3V331.6c0-8.5,6.9-15.3,15.3-15.3h336.9C952.5,316.3,959.4,323.1,959.4,331.6z M346.9,867.5c0,16.9,13.7,30.6,30.6,30.6s30.6-13.7,30.6-30.6s-13.7-30.6-30.6-30.6S346.9,850.6,346.9,867.5z M745,867.5c0,16.9,13.7,30.6,30.6,30.6s30.6-13.7,30.6-30.6s-13.7-30.6-30.6-30.6S745,850.6,745,867.5z"/></g></g>
</svg>