<?xml version="1.0" standalone="no"?><!DOCTYPE svg PUBLIC "-//W3C//DTD SVG 1.1//EN" "http://www.w3.org/Graphics/SVG/1.1/DTD/svg11.dtd"><svg class="icon" height="512" viewBox="0 0 1024 1024" version="1.1" xmlns="http://www.w3.org/2000/svg"><path style="fill:#ffffff;" d="M817.057 284.565c0-61.426-18.692-150.881-54.475-202.934-2.522-3.707-6.747-5.881-11.211-5.881h-490.215c-4.464 0-8.656 2.172-11.212 5.881-35.782 52.14-54.475 141.551-54.475 202.934 0 161.753 126.259 341.583 297.213 350.835v228.919h-109.052c-31.147 0-54.525 23.429-54.525 54.526v15.675c0 7.498 6.083 13.632 13.632 13.632h327.15c7.532 0 13.632-6.133 13.632-13.632v-13.632c0-31.778-23.99-56.57-54.525-56.57h-109.049v-228.921c170.902-9.251 297.111-189.082 297.111-350.834zM656.207 920.89h-299.888v-2.044c0-16.103 11.195-27.263 27.313-27.263h245.313c15.557 0 27.262 12.574 27.262 29.307zM268.517 102.971h475.441c28.711 46.133 44.471 121.872 45.58 175.239-23.004-5.315-47.54-8.418-75.484-8.418-86.182 0-129.753 25.082-171.891 49.361-40.791 23.566-79.402 45.75-158.243 45.75s-117.348-22.185-158.174-45.75l-0.801-0.46c-1.363-11.418-2.301-22.799-2.301-34.044 0.036-53.588 16.053-133.756 45.872-181.679zM231.167 353.489c36.974 20.413 79.401 38.644 152.807 38.644 86.115 0 129.701-25.099 171.874-49.379 40.809-23.515 79.316-45.75 158.208-45.75 27.943 0 52.343 2.982 74.666 8.69-10.769 144.832-130.214 303.295-282.405 303.295-135.632 0.085-245.125-125.748-275.149-255.5z" /></svg>